<svg width="20" height="19" viewBox="0 0 20 19" fill="none" xmlns="http://www.w3.org/2000/svg">
<path d="M5.83332 1.01786V4.41071C5.83332 4.97287 5.41359 5.42857 4.89582 5.42857H0.9375C0.419727 5.42857 0 4.97287 0 4.41071V1.01786C0 0.455703 0.419727 0 0.9375 0H4.89582C5.41359 0 5.83332 0.455703 5.83332 1.01786ZM12.9167 11.1964V7.80357C12.9167 7.24142 12.497 6.78571 11.9792 6.78571H8.02082C7.50305 6.78571 7.08332 7.24142 7.08332 7.80357V11.1964C7.08332 11.7586 7.50305 12.2143 8.02082 12.2143H11.9791C12.497 12.2143 12.9167 11.7586 12.9167 11.1964ZM14.1667 1.01786V4.41071C14.1667 4.97287 14.5864 5.42857 15.1042 5.42857H19.0625C19.5803 5.42857 20 4.97287 20 4.41071V1.01786C20 0.455703 19.5803 0 19.0625 0H15.1042C14.5864 0 14.1667 0.455703 14.1667 1.01786ZM12.9167 4.41071V1.01786C12.9167 0.455703 12.497 0 11.9792 0H8.02082C7.50305 0 7.08332 0.455703 7.08332 1.01786V4.41071C7.08332 4.97287 7.50305 5.42857 8.02082 5.42857H11.9791C12.497 5.42857 12.9167 4.97287 12.9167 4.41071ZM4.89582 6.78571H0.9375C0.419727 6.78571 0 7.24142 0 7.80357V11.1964C0 11.7586 0.419727 12.2143 0.9375 12.2143H4.89582C5.41359 12.2143 5.83332 11.7586 5.83332 11.1964V7.80357C5.83332 7.24142 5.41359 6.78571 4.89582 6.78571ZM0 14.5893V17.9821C0 18.5443 0.419727 19 0.9375 19H4.89582C5.41359 19 5.83332 18.5443 5.83332 17.9821V14.5893C5.83332 14.0271 5.41359 13.5714 4.89582 13.5714H0.9375C0.419727 13.5714 0 14.0271 0 14.5893ZM15.1042 12.2143H19.0625C19.5803 12.2143 20 11.7586 20 11.1964V7.80357C20 7.24142 19.5803 6.78571 19.0625 6.78571H15.1042C14.5864 6.78571 14.1667 7.24142 14.1667 7.80357V11.1964C14.1667 11.7586 14.5864 12.2143 15.1042 12.2143ZM15.1042 19H19.0625C19.5803 19 20 18.5443 20 17.9821V14.5893C20 14.0271 19.5803 13.5714 19.0625 13.5714H15.1042C14.5864 13.5714 14.1667 14.0271 14.1667 14.5893V17.9821C14.1667 18.5443 14.5864 19 15.1042 19ZM7.08332 14.5893V17.9821C7.08332 18.5443 7.50305 19 8.02082 19H11.9791C12.4969 19 12.9166 18.5443 12.9166 17.9821V14.5893C12.9166 14.0271 12.4969 13.5714 11.9791 13.5714H8.02082C7.50305 13.5714 7.08332 14.0271 7.08332 14.5893Z" fill="black"/>
</svg>
